<svg width="976" height="826" viewBox="0 0 976 826" fill="none" xmlns="http://www.w3.org/2000/svg">
<g clip-path="url(#clip0_63_2)">
<path opacity="0.1" d="M91.0001 710.13C113.865 710.13 132.4 707.287 132.4 703.78C132.4 700.273 113.865 697.43 91.0001 697.43C68.1355 697.43 49.6001 700.273 49.6001 703.78C49.6001 707.287 68.1355 710.13 91.0001 710.13Z" fill="#6C63FF"/>
<path opacity="0.1" d="M688.12 718.77C710.985 718.77 729.52 715.927 729.52 712.42C729.52 708.913 710.985 706.07 688.12 706.07C665.255 706.07 646.72 708.913 646.72 712.42C646.72 715.927 665.255 718.77 688.12 718.77Z" fill="#6C63FF"/>
<path opacity="0.1" d="M586.13 777.6C608.995 777.6 627.53 774.757 627.53 771.25C627.53 767.743 608.995 764.9 586.13 764.9C563.265 764.9 544.73 767.743 544.73 771.25C544.73 774.757 563.265 777.6 586.13 777.6Z" fill="#6C63FF"/>
<path opacity="0.1" d="M225.15 662.75C248.015 662.75 266.55 659.907 266.55 656.4C266.55 652.893 248.015 650.05 225.15 650.05C202.285 650.05 183.75 652.893 183.75 656.4C183.75 659.907 202.285 662.75 225.15 662.75Z" fill="#6C63FF"/>
<path opacity="0.1" d="M237.47 825.18C368.621 825.18 474.94 802.262 474.94 773.99C474.94 745.719 368.621 722.8 237.47 722.8C106.319 722.8 0 745.719 0 773.99C0 802.262 106.319 825.18 237.47 825.18Z" fill="#6C63FF"/>
<path opacity="0.1" d="M942.25 568.89C935.84 584.34 927.43 599.15 915.66 610.51C901.32 624.35 883.51 631.9 864.44 635.51C858.818 636.558 853.143 637.292 847.44 637.71C832.37 638.87 816.94 638.1 802.14 636.49C765.889 632.532 730.137 624.883 695.44 613.66C689.74 611.82 684.073 609.883 678.44 607.85C669.94 604.803 661.517 601.533 653.17 598.04C619.17 583.83 584.02 565.71 547.85 571.33C530.32 574.06 513.85 582.33 496.28 584.79C483.949 586.41 471.418 585.519 459.44 582.17C453.641 580.619 447.96 578.657 442.44 576.3C429.998 570.89 418.159 564.187 407.12 556.3C380.62 537.78 356.84 514.82 328.94 498.78C298.18 481.09 264.13 472.68 229.44 466.41C223.793 465.39 218.127 464.417 212.44 463.49C196.39 460.84 180.3 458.39 164.44 455.49C149.16 452.67 133.61 449.22 120.31 440.74C110.82 434.69 102.84 426.31 95.52 417.48C82.0168 401.118 70.4345 383.261 61 364.26C60.5 363.26 60.01 362.26 59.53 361.26C44.84 331.12 34.96 298.26 28.9 264.26C28.72 263.26 28.55 262.26 28.38 261.26C22.68 227.93 20.6 193.47 21.23 159.26L21.29 156.26C21.68 139.37 22.73 122.55 24.29 105.97C25.41 94.31 26.91 82.21 32.95 72.41C38.99 62.61 48.83 56.32 58.63 51.08C101.97 28.01 143.48 21.59 190.06 32.77C197.54 34.56 204.99 36.49 212.44 38.49C218.11 40.01 223.78 41.58 229.44 43.16C268.57 54.07 307.6 65.68 348.05 69.16C351.957 69.5 355.867 69.76 359.78 69.94C367.52 70.3 375.26 70.38 383 70.18C402.938 69.6204 422.806 67.5748 442.44 64.06C448.12 63.08 453.787 61.9934 459.44 60.8C483.84 55.71 508.02 48.92 531.81 41.41C536.67 39.8767 541.523 38.3167 546.37 36.73C557.29 33.16 568.21 29.52 579.15 25.98C611.81 15.39 644.63 5.72004 678.44 1.82004C681.333 1.49338 684.227 1.20338 687.12 0.950046C689.89 0.710046 692.67 0.520046 695.44 0.380046C747.89 -2.41995 800.94 10.23 847.44 36.12C853.213 39.3267 858.88 42.74 864.44 46.36C872.153 51.38 879.63 56.78 886.87 62.56C901.71 74.41 915.6 87.9 926.18 104.11C936.49 119.9 943.18 137.63 947.03 156.27C947.24 157.27 947.44 158.27 947.62 159.27C953.27 189.36 951.51 221.63 945.17 251.78C944.5 254.94 943.79 258.11 943.05 261.27C942.82 262.27 942.58 263.27 942.34 264.27C935.5 292.78 926.76 321.21 929.04 350.36C929.33 354.03 929.79 357.67 930.39 361.27C930.56 362.27 930.73 363.27 930.92 364.27C935.38 388.05 945.52 410.61 951.6 434.16C963.013 478.911 959.735 526.145 942.25 568.89Z" fill="#6C63FF"/>
<path opacity="0.1" d="M864.44 159.27H947.63C947.45 158.27 947.25 157.27 947.04 156.27H864.44V46.3599C858.88 42.7465 853.213 39.3332 847.44 36.1199V156.27H695.44V0.379883C692.67 0.519883 689.89 0.709883 687.12 0.949883C684.35 1.18988 681.33 1.48988 678.44 1.81988V156.27H461.44L460.92 155.7L579.15 25.9699C568.21 29.5099 557.29 33.1499 546.37 36.7199L459.44 132.11V60.7899C453.78 61.9765 448.113 63.0632 442.44 64.0499V135.4L383 70.1699C375.26 70.3566 367.52 70.2765 359.78 69.9299L437.94 155.7L437.42 156.27H229.42V43.1599C223.76 41.5799 218.09 40.0099 212.42 38.4899V156.27H21.27L21.21 159.27H212.44V261.27H28.36C28.53 262.27 28.7 263.27 28.88 264.27H212.44V361.27H59.51C59.99 362.27 60.48 363.27 60.98 364.27H212.44V463.53C218.12 464.463 223.787 465.437 229.44 466.45V364.27H442.44V576.27C447.96 578.627 453.641 580.589 459.44 582.14V364.27H678.44V607.84C684.08 609.88 689.747 611.817 695.44 613.65V364.27H847.44V637.7C853.143 637.282 858.818 636.548 864.44 635.5V364.27H930.92C930.73 363.27 930.56 362.27 930.39 361.27H864.39V264.27H942.29C942.53 263.27 942.77 262.27 943 261.27H864.44V159.27ZM847.44 159.27V261.27H695.44V159.27H847.44ZM678.44 261.27H459.44V159.27H678.44V261.27ZM229.44 159.27H439.44L442.44 162V261.27H229.44V159.27ZM229.44 361.27V264.27H442.44V361.27H229.44ZM459.44 361.27V264.27H678.44V361.27H459.44ZM847.44 361.27H695.44V264.27H847.44V361.27Z" fill="#6C63FF"/>
<path opacity="0.1" d="M774.36 89.0299H773.04C773.505 88.7614 773.896 88.3813 774.177 87.9238C774.458 87.4663 774.62 86.946 774.65 86.4099V86.4099C774.65 84.3499 772.12 82.6599 769.03 82.6599H729.63C726.54 82.6599 724 84.3499 724 86.4099C724 88.4799 726.54 90.1699 729.63 90.1699H730.95C730.486 90.4391 730.095 90.8194 729.814 91.2767C729.533 91.7341 729.37 92.254 729.34 92.7899C729.34 94.5499 731.18 96.0399 733.64 96.4399H722.28C719.18 96.4399 716.65 98.1299 716.65 100.19C716.65 102.25 719.18 103.95 722.28 103.95H761.69C764.79 103.95 767.32 102.26 767.32 100.19C767.32 98.4299 765.48 96.9499 763.01 96.5499H774.36C777.45 96.5499 779.98 94.8599 779.98 92.7899C779.98 90.7199 777.45 89.0299 774.36 89.0299Z" fill="#6C63FF"/>
<path opacity="0.1" d="M347.2 124.8H345.88C346.342 124.528 346.731 124.147 347.011 123.69C347.292 123.234 347.456 122.715 347.49 122.18V122.18C347.49 120.11 344.96 118.42 341.86 118.42H302.45C299.35 118.42 296.82 120.11 296.82 122.18C296.82 124.24 299.35 125.93 302.45 125.93H303.76C303.299 126.202 302.913 126.584 302.634 127.041C302.355 127.497 302.192 128.016 302.16 128.55C302.16 130.32 304 131.8 306.46 132.2H295.12C292.02 132.2 289.49 133.89 289.49 135.96C289.49 138.03 292.02 139.71 295.12 139.71H334.53C337.63 139.71 340.16 138.02 340.16 135.96C340.16 134.19 338.31 132.71 335.85 132.31H347.2C350.29 132.31 352.82 130.62 352.82 128.55C352.82 126.48 350.29 124.8 347.2 124.8Z" fill="#6C63FF"/>
<path opacity="0.1" d="M834.82 277.86H833.5C833.962 277.588 834.35 277.207 834.631 276.75C834.912 276.294 835.076 275.775 835.11 275.24C835.11 273.18 832.58 271.49 829.48 271.49H790.07C786.97 271.49 784.44 273.18 784.44 275.24C784.44 277.3 786.97 278.99 790.07 278.99H791.38C790.919 279.262 790.531 279.643 790.252 280.1C789.973 280.557 789.811 281.075 789.78 281.61C789.78 283.37 791.62 284.86 794.08 285.26H782.73C779.64 285.26 777.11 286.95 777.11 289.01C777.11 291.07 779.64 292.77 782.73 292.77H822.15C825.24 292.77 827.78 291.08 827.78 289.01C827.78 287.25 825.93 285.77 823.47 285.37H834.82C837.91 285.37 840.44 283.68 840.44 281.61C840.44 279.54 837.91 277.86 834.82 277.86Z" fill="#6C63FF"/>
<path d="M227.35 601.47L688.12 653.25V667.94L226.18 614.4L227.35 601.47Z" fill="#EAECF0"/>
<path d="M226.65 656.05H217.91V438.97L224.2 440.88L224.27 447.39L226.65 656.05Z" fill="#EAECF0"/>
<path d="M230.5 652.55L226.65 656.05L224.27 447.39L224.2 440.88H228.75L228.81 447.78L230.5 652.55Z" fill="#D3DAE1"/>
<path d="M92.8301 646.95L220.36 602.52V606.72L92.8301 650.8V646.95Z" fill="#D3DAE1"/>
<path d="M95.1101 660.94L92.8301 650.8L220.36 606.72V615.46L95.1101 660.94Z" fill="#EAECF0"/>
<path d="M688.12 425.14V712.02H681.47L681.13 445.89L681.12 437.38L688.12 425.14Z" fill="#EAECF0"/>
<path d="M693.01 423.74V709.57L688.12 712.02V425.14L693.01 423.74Z" fill="#D3DAE1"/>
<path d="M586.13 705.73L681.39 652.49L688.12 656.4L586.13 712.02V705.73Z" fill="#D3DAE1"/>
<path d="M589.11 723.92L586.13 712.02L688.12 656.4V667.94L589.11 723.92Z" fill="#EAECF0"/>
<path d="M574.76 470.97L575.11 773.95H584.56L583.16 467.47L574.76 470.97Z" fill="#EAECF0"/>
<path d="M589.11 464.67V771.5L584.56 773.95L583.16 467.47L583.72 467.21L589.11 464.67Z" fill="#D3DAE1"/>
<path d="M91.6098 706.08H83.5598L80.7998 435.06L80.7598 430.39H88.4598L88.5198 435.72L91.6098 706.08Z" fill="#EAECF0"/>
<path d="M97.2 703.98L91.61 706.08L88.52 435.72L88.46 430.39H94.41L94.46 436.24L97.2 703.98Z" fill="#D3DAE1"/>
<path opacity="0.1" d="M583.72 467.21L589.11 464.67V476.57L583.86 478.32L583.72 467.21Z" fill="black"/>
<path opacity="0.1" d="M693.01 423.74V441.93L688.12 443.57L681.13 445.89L681.12 437.38L688.12 425.14L693.01 423.74Z" fill="black"/>
<path d="M693.01 388.75V439.13L583.86 475.52L583.16 421.64L693.01 388.75Z" fill="#D48A9B"/>
<path d="M79.3599 385.25L222.81 357.97L693.01 388.75L583.16 421.64L79.3599 385.25Z" fill="#EFC6CD"/>
<path opacity="0.1" d="M94.4098 430.39L94.4598 436.24L88.5198 435.72L80.7998 435.06L80.7598 430.39H94.4098Z" fill="black"/>
<path opacity="0.1" d="M228.81 447.78L224.27 447.39L217.91 446.85V438.97L224.2 440.88H228.75L228.81 447.78Z" fill="black"/>
<path d="M79.3599 385.25V432.14L583.86 475.52L583.16 421.64L79.3599 385.25Z" fill="#D48A9B"/>
<path d="M479.37 441H413.48V417.09L479.37 421.73V441Z" fill="#D48A9B"/>
<path opacity="0.1" d="M479.37 441H413.48V417.09L479.37 421.73V441Z" fill="black"/>
<path opacity="0.1" d="M324.96 411.85V449.63L577.91 468.87V428.64L479.25 423.04L469.45 431.79L429.22 428.99L414.88 418.49L324.96 411.85Z" fill="black"/>
<path d="M323.56 410.44V448.23L576.51 467.47V427.24L477.85 421.64L468.06 430.39L427.82 427.59L413.48 417.09L323.56 410.44Z" fill="white"/>
<path d="M167.53 400.3L227.35 404.5L226.65 423.51H187.59L161.46 413.24L167.53 400.3Z" fill="#D48A9B"/>
<path opacity="0.1" d="M167.53 400.3L227.35 404.5L226.65 423.51H187.59L161.46 413.24L167.53 400.3Z" fill="black"/>
<path opacity="0.1" d="M87.7598 395.05V428.99L317.27 447.18V411.14L228.75 405.9L219.31 412.89L183.62 410.8L168.93 401.7L87.7598 395.05Z" fill="black"/>
<path d="M86.3599 393.65V427.59L315.87 445.78V409.75L227.35 404.5L217.91 411.5L182.22 409.4L167.53 400.3L86.3599 393.65Z" fill="white"/>
<path opacity="0.1" d="M96.6499 649.48L98.2199 648.94L97.4299 660.1L96.6499 660.38V649.48Z" fill="black"/>
<path opacity="0.1" d="M577.94 393.78L610.11 395.89L556.8 411.85L529.65 409.88L577.94 393.78Z" fill="black"/>
<path d="M577.94 392.38L610.11 394.49L556.8 410.44L529.65 408.48L577.94 392.38Z" fill="white"/>
<path d="M574.09 395.99C575.36 395.45 576.71 396.47 578.09 396.73C578.86 396.88 579.66 396.73 580.43 396.88C582.01 397.09 583.58 398.15 585.08 397.61" fill="#D3DAE1"/>
<path d="M572.43 396.96C573.69 396.41 575.05 397.43 576.43 397.69C577.2 397.84 578 397.69 578.78 397.84C580.36 398.05 581.92 399.11 583.42 398.57" fill="#D3DAE1"/>
<path d="M568.63 398.88C569.9 398.34 571.26 399.36 572.63 399.62C573.4 399.77 574.2 399.62 574.98 399.77C576.56 399.98 578.12 401.04 579.62 400.5" fill="#D3DAE1"/>
<path d="M49.9999 746.65C55.1858 746.65 59.3899 742.446 59.3899 737.26C59.3899 732.074 55.1858 727.87 49.9999 727.87C44.8139 727.87 40.6099 732.074 40.6099 737.26C40.6099 742.446 44.8139 746.65 49.9999 746.65Z" fill="#535461"/>
<path d="M66.8002 783.38C71.9861 783.38 76.1902 779.176 76.1902 773.99C76.1902 768.804 71.9861 764.6 66.8002 764.6C61.6142 764.6 57.4102 768.804 57.4102 773.99C57.4102 779.176 61.6142 783.38 66.8002 783.38Z" fill="#535461"/>
<path d="M234.33 790.03C239.516 790.03 243.72 785.826 243.72 780.64C243.72 775.454 239.516 771.25 234.33 771.25C229.144 771.25 224.94 775.454 224.94 780.64C224.94 785.826 229.144 790.03 234.33 790.03Z" fill="#535461"/>
<path d="M271.76 742.1C276.946 742.1 281.15 737.896 281.15 732.71C281.15 727.524 276.946 723.32 271.76 723.32C266.574 723.32 262.37 727.524 262.37 732.71C262.37 737.896 266.574 742.1 271.76 742.1Z" fill="#535461"/>
<path d="M165.81 571.43H154.05V644.9H165.81V571.43Z" fill="#535461"/>
<path opacity="0.1" d="M165.81 633H154.05V644.9H165.81V633Z" fill="black"/>
<path d="M168.08 635.8H151.78V717.32H168.08V635.8Z" fill="#3A3768"/>
<path d="M269.73 716.79L163.01 712.42V729.59H286.86C285.629 725.978 283.334 722.822 280.277 720.538C277.219 718.253 273.543 716.947 269.73 716.79V716.79Z" fill="#3A3768"/>
<path d="M56.2902 716.79L163.01 712.42V729.59H39.1602C40.3902 725.977 42.6847 722.821 45.7421 720.536C48.7995 718.252 52.4767 716.946 56.2902 716.79V716.79Z" fill="#3A3768"/>
<path d="M151.78 714.17L66.5801 756.17C62.9764 757.958 59.9436 760.717 57.8235 764.135C55.7033 767.554 54.58 771.497 54.5801 775.52V776.8L154.08 733.42L168.08 732.37L250.82 785.2C251.348 781.295 250.797 777.32 249.226 773.707C247.655 770.093 245.125 766.978 241.91 764.7L168.08 712.43L151.78 714.17Z" fill="#3A3768"/>
<path opacity="0.1" d="M165.81 571.42V579.34C163.75 579.427 161.65 579.47 159.51 579.47C157.66 579.47 155.84 579.47 154.05 579.37V571.42H165.81Z" fill="black"/>
<path d="M159.51 576.67C183.474 576.67 202.9 570.989 202.9 563.98C202.9 556.972 183.474 551.29 159.51 551.29C135.546 551.29 116.12 556.972 116.12 563.98C116.12 570.989 135.546 576.67 159.51 576.67Z" fill="#3A3768"/>
<path opacity="0.1" d="M202.52 563.98C202.479 564.686 202.293 565.375 201.975 566.006C201.657 566.638 201.213 567.197 200.67 567.65C195.31 572.87 178.74 576.65 159.14 576.65C139.97 576.65 123.72 573.01 117.97 567.98C117.333 567.513 116.804 566.913 116.419 566.223C116.034 565.533 115.803 564.768 115.74 563.98C115.74 556.98 135.17 551.29 159.14 551.29C183.11 551.29 202.52 556.97 202.52 563.98Z" fill="black"/>
<path opacity="0.1" d="M202.89 563.98C202.848 564.686 202.663 565.375 202.344 566.006C202.026 566.638 201.582 567.197 201.04 567.65C195.52 566.27 191.7 565.13 191.7 565.13C191.7 565.13 153.45 567.27 118.34 568C117.703 567.533 117.174 566.933 116.789 566.243C116.404 565.553 116.172 564.788 116.11 564C116.11 557 135.54 551.31 159.51 551.31C183.48 551.31 202.89 556.97 202.89 563.98Z" fill="black"/>
<path d="M50 396.84C50 396.84 64.35 436.03 63.65 459.47C62.95 482.91 51.75 526.99 51.75 526.99C51.75 526.99 40.56 562.68 69.25 565.83C97.94 568.98 191.7 563.73 191.7 563.73C191.7 563.73 226.7 574.22 237.88 569.67C242.23 567.91 246 564.03 248.98 559.94C250.612 557.711 251.773 555.173 252.392 552.481C253.011 549.789 253.075 546.999 252.581 544.281C252.087 541.563 251.045 538.974 249.518 536.672C247.991 534.369 246.012 532.402 243.7 530.89C238.477 527.634 232.788 525.193 226.83 523.65C225.576 523.31 224.279 523.151 222.98 523.18L100.73 525.59C100.73 525.59 87.09 523.49 89.54 509.85C91.99 496.21 96.18 454.22 96.18 454.22C96.18 454.22 96.88 403.14 72.39 388.8C47.9 374.46 50 396.84 50 396.84Z" fill="#3A3768"/>
<path opacity="0.1" d="M50 396.72C50 396.72 64.35 435.9 63.65 459.34C62.95 482.78 51.75 526.87 51.75 526.87C51.75 526.87 40.56 562.55 69.25 565.7C97.94 568.85 191.7 563.59 191.7 563.59C191.7 563.59 226.7 574.09 237.88 569.59C242.23 567.82 246 563.94 248.98 559.86C250.612 557.63 251.773 555.091 252.392 552.398C253.011 549.705 253.076 546.915 252.582 544.196C252.088 541.477 251.046 538.887 249.519 536.584C247.992 534.281 246.012 532.313 243.7 530.8C238.473 527.552 232.785 525.112 226.83 523.56C225.576 523.218 224.279 523.063 222.98 523.1L100.73 525.47C100.73 525.47 87.09 523.37 89.54 509.72C91.99 496.07 96.18 454.1 96.18 454.1C96.18 454.1 96.88 403.02 72.39 388.67C47.9 374.32 50 396.72 50 396.72Z" fill="black"/>
<path d="M52.8001 395.44C52.8001 395.44 67.1502 434.63 66.4502 458.07C65.7502 481.51 54.5501 525.59 54.5501 525.59C54.5501 525.59 43.3601 561.28 72.0401 564.43C100.72 567.58 194.49 562.33 194.49 562.33C194.49 562.33 229.49 572.82 240.68 568.33C245.03 566.56 248.8 562.68 251.78 558.59C253.412 556.361 254.573 553.823 255.192 551.131C255.811 548.439 255.876 545.648 255.382 542.931C254.888 540.213 253.845 537.624 252.318 535.322C250.792 533.019 248.812 531.052 246.5 529.54C241.28 526.267 235.591 523.808 229.63 522.25C228.376 521.909 227.079 521.751 225.78 521.78L103.53 524.19C103.53 524.19 89.8901 522.09 92.3401 508.45C94.7901 494.81 98.9801 452.82 98.9801 452.82C98.9801 452.82 99.6801 401.74 75.1901 387.4C50.7001 373.06 52.8001 395.44 52.8001 395.44Z" fill="#3A3768"/>
<path d="M301.04 732.32V744.97C301.04 744.97 361.47 746.06 374.78 746.06C388.09 746.06 406.41 739.52 407.5 734.28C408.59 729.04 392.23 724.68 386.12 724.47C380.01 724.26 379.8 721.85 371.94 717.7C367.51 715.36 360.78 708.57 355.76 703.1C351.89 698.88 349.04 695.45 349.04 695.45C349.04 695.45 316.53 694.8 307.15 700.03C304.99 701.24 303.5 703.6 302.48 706.53C299.1 716.3 301.04 732.32 301.04 732.32Z" fill="#434175"/>
<path opacity="0.1" d="M302.48 706.53C309.3 704.16 349.2 703.24 355.76 703.1C351.89 698.88 349.04 695.45 349.04 695.45C349.04 695.45 316.53 694.8 307.15 700.03C304.99 701.24 303.5 703.59 302.48 706.53Z" fill="black"/>
<path d="M127.17 504.78L130.69 506.91L132.01 507.71L137.14 510.79C164.56 527.32 239.35 572.11 243.45 571.79C244.52 571.7 247.74 571.22 252.19 570.49C253.37 570.3 254.64 570.1 255.97 569.87C273.1 567.02 301.57 561.87 304.75 560.45C309.11 558.45 308.24 567.21 306.49 574.63C304.74 582.05 303.44 617.63 305.4 622.19C307.36 626.75 306.49 634.19 306.49 634.19L303.88 674.11L305.63 682.59C305.63 682.59 299.74 687.39 302.14 690.22C304.54 693.05 302.36 705.28 302.36 705.28C309.36 702.66 356.68 701.79 356.68 701.79C356.68 701.79 354.68 684.33 356.46 680.19C358.24 676.05 356.9 651.39 356.9 651.39C356.9 651.39 357.99 632.63 356.03 628.27C354.07 623.91 356.68 595.98 356.68 595.98C356.68 595.98 358.43 579.4 358.86 545.58C359.29 511.76 339.66 510.68 339.66 510.68C339.66 510.68 337.05 510.47 333.07 510.09C325.3 509.34 312.34 507.92 303.68 506.09C301.906 505.718 300.154 505.25 298.43 504.69C287.74 501.05 251.75 500.91 245.86 503.53C240.19 506.05 234.52 503.72 234.1 503.53L229.52 496.11L185.76 499.84L181.13 500.24L138.05 503.91L135.05 504.17L127.17 504.78Z" fill="#565387"/>
<path opacity="0.1" d="M302.57 538.24C315.28 544.44 327.41 522.47 333.06 510.08C325.29 509.33 312.33 507.91 303.67 506.08C297.98 515.59 290.38 532.31 302.57 538.24Z" fill="black"/>
<path d="M264.39 389.81C264.654 391.308 265.175 392.749 265.93 394.07C270.63 403.59 284.24 423.19 284.24 423.19C288.287 425.723 291.706 429.143 294.24 433.19C297.95 439.52 299.04 454.35 299.04 454.35C299.04 454.35 307.33 487.29 311.25 491.88C313.25 494.17 312.34 495.53 310.98 496.32C308.192 497.872 305.829 500.088 304.1 502.77C298.38 511.96 289.25 530.21 302.1 536.47C319.55 544.98 335.92 500.38 335.92 500.38C335.92 500.38 332.64 468.75 331.77 463.3C330.9 457.85 325.66 435.37 325.66 435.37C325.66 435.37 321.95 425.77 319.77 419.01C317.59 412.25 311.05 404.39 311.05 404.39C311.05 404.39 299.26 380.83 295.99 377.34C294.47 375.72 292.34 373.68 290.5 371.96C288.37 369.96 286.61 368.4 286.61 368.4C286.61 368.4 264.17 384.59 264.39 389.81Z" fill="#EE8E9E"/>
<path d="M116.48 729.7L156.18 747.37C156.18 747.37 207.63 748.46 216.63 746.06C225.63 743.66 223.63 733.63 211.83 731.66C200.03 729.69 197.22 724.47 193.29 722.07C190.64 720.45 181.23 709.98 175.4 703.35C172.59 700.16 170.6 697.85 170.6 697.85C170.6 697.85 162.96 677.56 141.8 682.14C137.931 682.983 134.366 684.868 131.49 687.59C120.08 698.15 119.09 719.04 119.09 719.04L116.48 729.7Z" fill="#434175"/>
<path opacity="0.1" d="M132.01 507.71L137.14 510.79C164.56 527.32 239.35 572.11 243.45 571.79C244.52 571.7 247.74 571.22 252.19 570.49C253.37 570.3 254.64 570.1 255.97 569.87L256.12 569.62C258.32 565.783 260.001 561.67 261.12 557.39C265.7 539.94 243.01 526.63 243.01 526.63L238.21 522.9C232.76 513.72 193.49 505.04 193.49 505.04L188.43 501.59L185.72 499.77L185.01 499.3L178.87 495.17L148.11 497.35L138.97 503.22L137.97 503.84L134.63 506.03L132.01 507.71Z" fill="black"/>
<path opacity="0.1" d="M131.49 687.59C139.84 716.48 174.72 707.04 174.72 707.04L175.38 703.38C172.57 700.19 170.58 697.88 170.58 697.88C170.58 697.88 162.94 677.59 141.78 682.17C137.921 683.008 134.364 684.882 131.49 687.59V687.59Z" fill="black"/>
<path d="M122.37 556.48C135.24 556.48 168.37 571.97 168.37 571.97C175.13 577.21 184.29 575.46 184.29 575.46C184.29 575.46 168.18 591.82 168.63 598.59C169.08 605.36 159.46 616.48 159.46 616.48L129.79 675.16C131.98 716.83 174.73 705.27 174.73 705.27L176.48 695.45C179.1 694.14 183.03 681.05 183.03 681.05C183.03 681.05 183.03 675.82 185.64 674.29C188.25 672.76 193.71 657.05 193.71 657.05C193.71 657.05 205.49 637.2 204.83 634.59C204.17 631.98 213.34 618.67 213.34 618.67C213.34 618.67 228.83 603.4 228.17 600.67C227.51 597.94 240.63 583.97 240.63 583.97C245.373 580.301 249.314 575.7 252.21 570.45C254.408 566.615 256.089 562.506 257.21 558.23C260.9 544.17 246.9 532.8 241.31 528.91C239.96 527.97 239.1 527.47 239.1 527.47L234.3 523.74C231.82 519.56 222.35 515.48 212.75 512.29C205.83 509.98 198.85 508.12 194.38 507.01C191.38 506.28 189.58 505.87 189.58 505.87L184.52 502.47L182.74 501.27L181.11 500.18L174.96 496.05L161.28 497.05L144.2 498.26L135.07 504.14L130.71 506.94L113.66 517.94C113.66 517.94 113.21 522.13 113.07 527.77C113.07 528.2 113.07 528.64 113.07 529.1C112.84 540.43 114.07 556.48 122.37 556.48Z" fill="#565387"/>
<path d="M188.03 312.14L192.63 328.5C192.63 328.5 200.71 356.65 201.58 358.61C202.45 360.57 223.58 380.43 224.49 380.86C225.4 381.29 236.88 387.86 236.88 387.86C236.88 387.86 237.79 351.86 236.88 341.4C236.805 339.099 236.996 336.797 237.45 334.54C238.84 326.33 242.36 314.3 245.28 305.03C247.72 297.26 249.75 291.44 249.75 291.44C249.75 291.44 198.7 289.25 200.45 294.27C201.11 296.17 200.89 299.34 200.26 302.52C199.2 307.76 197.01 313 195.65 312.6C194.321 312.297 192.963 312.146 191.6 312.15C189.74 312.07 188.03 312.14 188.03 312.14Z" fill="#EE8E9E"/>
<path opacity="0.1" d="M200.28 302.5C206.514 307.7 214.258 310.753 222.364 311.205C230.47 311.657 238.506 309.485 245.28 305.01C247.72 297.24 249.75 291.42 249.75 291.42C249.75 291.42 198.7 289.23 200.45 294.25C201.13 296.15 200.91 299.32 200.28 302.5Z" fill="black"/>
<path d="M186.72 272.22C186.718 279.687 188.93 286.986 193.077 293.196C197.224 299.405 203.119 304.245 210.017 307.104C216.915 309.962 224.505 310.711 231.829 309.256C239.152 307.8 245.879 304.206 251.16 298.927C256.44 293.648 260.037 286.921 261.494 279.598C262.951 272.275 262.204 264.685 259.348 257.786C256.491 250.888 251.652 244.991 245.444 240.843C239.236 236.694 231.937 234.48 224.47 234.48C219.507 234.456 214.588 235.416 209.998 237.304C205.408 239.192 201.237 241.971 197.727 245.48C194.217 248.989 191.437 253.159 189.548 257.749C187.659 262.338 186.698 267.257 186.72 272.22V272.22Z" fill="#EE8E9E"/>
<path opacity="0.1" d="M188.03 312.14L192.63 328.5C192.63 328.5 200.71 356.65 201.58 358.61C202.45 360.57 223.58 380.43 224.49 380.86C225.4 381.29 236.88 387.86 236.88 387.86C236.88 387.86 237.79 351.86 236.88 341.4C236.805 339.099 236.996 336.797 237.45 334.54L234.45 346.63L234.67 370.85L236.41 372.16L232.49 378.05V373.68C232.49 373.68 218.49 360.16 216.34 354.48C214.19 348.8 206.34 338.54 206.34 338.54C206.34 338.54 197.34 323.54 197.18 320.89C197.01 318.89 193.25 314.13 191.6 312.15C189.74 312.07 188.03 312.14 188.03 312.14Z" fill="black"/>
<path opacity="0.1" d="M264.39 389.81C264.654 391.308 265.175 392.749 265.93 394.07C270.7 393.59 286.93 390.55 290.53 371.99C288.4 369.99 286.64 368.43 286.64 368.43C286.64 368.43 264.17 384.59 264.39 389.81Z" fill="black"/>
<path opacity="0.1" d="M113.02 529.03C117.42 525.91 121.61 521.66 124.11 520.49C127.82 518.74 133.49 513.07 133.49 513.07C133.49 513.07 134.93 512.07 137.14 510.79C141.19 508.42 147.83 504.98 152.91 504.56C157.46 504.18 172.6 503.21 184.5 502.47L200.03 501.47C200.03 501.47 214.21 496.47 220.32 499.72C224.695 501.903 229.305 503.581 234.06 504.72C234.06 504.72 234.06 504.24 234.06 503.42L229.48 496L181.09 500.13L174.94 496L144.18 498.18L135.05 504.06L127.17 504.73L130.69 506.86L113.64 517.86C113.64 517.86 113.12 522.74 113.02 529.03Z" fill="black"/>
<path d="M106.63 530.96C108.94 530.27 111.106 529.165 113.02 527.7V527.7C117.41 524.59 121.59 520.35 124.08 519.18C127.79 517.43 133.46 511.76 133.46 511.76C133.46 511.76 145.03 503.9 152.88 503.25C155.02 503.07 159.5 502.76 164.88 502.41L182.69 501.27L191.93 500.69L200 500.2C200 500.2 214.18 495.2 220.29 498.45C224.665 500.633 229.275 502.311 234.03 503.45C234.03 503.45 234.25 488.18 236.03 481.85C237.81 475.52 240.17 463.96 240.17 463.96C240.17 463.96 242.17 448.04 244.1 440.84C246.03 433.64 253.7 393.5 257.63 390.84C261.56 388.18 263.73 392.84 263.73 392.84C263.73 392.84 289.91 392.4 290.35 363.61C290.35 363.61 278.13 351.39 277.26 348.34C276.39 345.29 264.83 333.94 264.83 333.94C264.83 333.94 258.28 321.72 250.83 321.5C247.327 321.296 243.813 321.407 240.33 321.83L234.03 347.46L234.25 371.68L236 372.99L232.07 378.88V374.59C232.07 374.59 218.07 361.06 215.93 355.39C213.79 349.72 205.93 339.44 205.93 339.44C205.93 339.44 196.99 324.44 196.77 321.79C196.55 319.14 190.44 312.16 190.44 312.16C189.208 312.011 187.962 312.011 186.73 312.16C186.18 312.196 185.629 312.117 185.11 311.93C181.587 310.807 177.838 310.594 174.21 311.31C166.67 312.88 155.21 315.74 152.05 319.17C147.25 324.41 140.27 329.43 132.41 351.24L174.73 366.51L171.11 373.4L137.43 437.4C137.43 437.4 136.31 439.22 134.8 441.59C132.8 444.67 130.21 448.7 128.48 450.91C125.43 454.84 126.3 467.27 126.3 467.27C126.3 467.27 125.65 473.16 123.47 475.35C121.29 477.54 121.71 485.59 121.71 485.59L116.04 506.75C116.04 506.75 110.8 511.55 110.8 513.75C110.8 515.95 106.66 522.04 106.66 522.04C106.66 522.04 100.33 532.48 106.63 530.96Z" fill="#DFE5EE"/>
<path opacity="0.1" d="M134.79 441.59C135.082 442.793 135.305 444.012 135.46 445.24C135.46 445.24 152.69 485.6 154.87 488C155.54 488.74 158.08 492.37 161.26 497L164.91 502.39C171.5 512.18 178.91 523.3 178.91 523.3L195.05 537.48C195.05 537.48 230.17 540.29 241.33 528.89C239.98 527.95 239.12 527.45 239.12 527.45L234.32 523.72C231.84 519.54 222.37 515.46 212.77 512.27C203.93 512.33 196.7 513.05 196.7 513.05L194.4 506.99L192 500.67L179.76 468.59C179.76 468.59 171.89 428.02 169.27 426.05C166.65 424.08 167.27 417.98 167.27 417.98C167.27 417.98 172.07 400.75 170.32 398.35C168.57 395.95 173.16 378.27 173.16 378.27C172.705 376.545 171.997 374.898 171.06 373.38L137.38 437.38C137.38 437.38 136.3 439.19 134.79 441.59Z" fill="black"/>
<path d="M173.63 376.94C173.63 376.94 169.05 394.61 170.8 397.01C172.55 399.41 167.74 416.64 167.74 416.64C167.74 416.64 167.09 422.75 169.74 424.71C172.39 426.67 180.23 467.25 180.23 467.25L197.13 511.76C197.13 511.76 250.02 506.52 244.57 523.1C239.12 539.68 195.48 536.19 195.48 536.19L179.34 522.01C179.34 522.01 157.52 489.07 155.34 486.67C153.16 484.27 135.92 443.91 135.92 443.91C135.92 443.91 135.05 435.84 131.34 431.69C127.63 427.54 130.47 420.54 130.47 420.54C130.47 420.54 125.89 367.77 130.69 361.45C135.49 355.13 168.63 357.96 173.63 376.94Z" fill="#EE8E9E"/>
<path opacity="0.1" d="M330.06 546.66C330.06 546.66 316.31 551.25 312.63 557.79C308.95 564.33 330.06 546.66 330.06 546.66Z" fill="black"/>
<path opacity="0.1" d="M323.07 532.27C322.64 532.92 304.25 551.37 305.4 555.83C306.55 560.29 323.07 532.27 323.07 532.27Z" fill="black"/>
<path opacity="0.1" d="M222.07 545.36C222.07 545.36 201.56 555.03 199.81 559.24C198.06 563.45 222.07 545.36 222.07 545.36Z" fill="black"/>
<path opacity="0.1" d="M220.76 557.79C220.76 557.79 202.25 565.64 199.76 567.61C197.27 569.58 220.76 557.79 220.76 557.79Z" fill="black"/>
<path opacity="0.1" d="M212.25 574.59C212.25 574.59 204.05 580.7 199.53 575.9C195.01 571.1 212.25 574.59 212.25 574.59Z" fill="black"/>
<path opacity="0.1" d="M243.01 415.33C242.57 415.99 215.3 465.07 208.1 468.78C200.9 472.49 243.01 415.33 243.01 415.33Z" fill="black"/>
<path opacity="0.1" d="M241.7 433.88C241.7 434.97 215.08 491.88 210.7 492.56C206.32 493.24 241.7 433.88 241.7 433.88Z" fill="black"/>
<path opacity="0.1" d="M140.47 470.53C140.47 470.53 127.63 497.98 122.63 499.59C117.63 501.2 140.47 470.53 140.47 470.53Z" fill="black"/>
<path opacity="0.1" d="M138.29 458.31C138.29 458.31 133.86 467.91 131.17 467.91C128.48 467.91 138.29 458.31 138.29 458.31Z" fill="black"/>
<path opacity="0.1" d="M186.72 272.22C186.717 276.731 187.527 281.206 189.11 285.43C188.971 280.531 189.843 275.656 191.672 271.109C193.502 266.563 196.249 262.442 199.743 259.005C203.237 255.569 207.403 252.889 211.979 251.135C216.555 249.381 221.444 248.589 226.34 248.81C228.17 248.89 230.34 249.32 231.08 250.98C231.371 251.871 231.523 252.802 231.53 253.74C232.08 257.98 236.38 260.63 240.42 262.01C244.46 263.39 248.96 264.27 251.89 267.38C254.57 270.23 255.33 274.32 256.65 278.01C257.393 280.269 258.653 282.324 260.33 284.01C262.037 278.821 262.597 273.323 261.972 267.896C261.347 262.469 259.552 257.242 256.71 252.577C253.868 247.911 250.048 243.918 245.512 240.873C240.977 237.828 235.835 235.804 230.44 234.94C225.046 234.076 219.529 234.393 214.27 235.869C209.01 237.345 204.133 239.945 199.977 243.49C195.82 247.034 192.482 251.439 190.193 256.399C187.904 261.359 186.719 266.757 186.72 272.22V272.22Z" fill="black"/>
<path d="M257.21 238.05C254.11 233.84 248.61 232.38 243.83 230.26C237.919 227.581 232.7 223.581 228.576 218.569C224.452 213.558 221.532 207.667 220.04 201.35C218.135 204.152 217.241 207.519 217.507 210.896C217.772 214.274 219.181 217.46 221.5 219.93C212.81 219.34 203.21 218.34 197.32 211.93C195.98 216.55 199.99 221.8 197.8 226.08C195.92 229.76 190.8 230.08 187.49 232.58C183.96 235.2 182.79 239.95 182.57 244.34C182.35 248.73 182.81 253.23 181.51 257.43C180.51 260.62 178.51 263.55 178.31 266.88C178.287 269.361 178.835 271.814 179.91 274.05C182.378 280.007 185.721 285.561 189.83 290.53C188.712 285.203 188.827 279.69 190.165 274.414C191.504 269.138 194.032 264.238 197.555 260.089C201.078 255.94 205.503 252.651 210.492 250.474C215.481 248.297 220.902 247.29 226.34 247.53C228.17 247.61 230.34 248.05 231.08 249.71C231.373 250.601 231.525 251.532 231.53 252.47C232.08 256.7 236.38 259.35 240.42 260.73C244.46 262.11 248.96 263 251.89 266.1C254.57 268.95 255.33 273.04 256.65 276.73C257.97 280.42 260.52 284.28 264.41 284.73C265.3 279.25 266.2 273.73 265.65 268.17C265.05 262.22 261.05 258.85 259.65 253.67C258.13 248.24 261.01 243.21 257.21 238.05Z" fill="#603556"/>
<path opacity="0.1" d="M146.63 343.78L132.89 352.07C132.89 352.07 128.96 365.37 125.89 367.07C125.89 367.07 153.38 351.8 174.1 386.92C174.1 386.92 173.45 382.34 176.28 380.16C179.11 377.98 178.46 368.6 178.46 368.6C179.223 367.114 179.891 365.581 180.46 364.01C182.36 359.26 172.11 331.78 146.63 343.78Z" fill="black"/>
<path d="M146.15 342.9L132.4 351.19C132.4 351.19 128.47 364.5 125.4 366.25C125.4 366.25 152.89 350.97 173.61 386.1C173.61 386.1 172.96 381.52 175.8 379.34C178.64 377.16 177.98 367.77 177.98 367.77C178.748 366.29 179.416 364.76 179.98 363.19C181.92 358.39 171.63 330.9 146.15 342.9Z" fill="#DFE5EE"/>
<g opacity="0.1">
<path d="M198.46 222.93C198.41 219.37 196.29 215.45 197.32 211.93L197.5 212.12C197.75 215.76 199.77 219.59 198.46 222.93Z" fill="black"/>
<path d="M183.01 241.7C182.8 245.7 183.16 249.7 182.26 253.59C182.59 250.54 182.41 247.4 182.57 244.32C182.636 242.86 182.827 241.408 183.14 239.98C183.08 240.59 183.03 241.13 183.01 241.7Z" fill="black"/>
<path d="M178.31 266.86C178.367 266.067 178.512 265.282 178.74 264.52C178.778 266.905 179.327 269.255 180.35 271.41C182.609 276.859 185.603 281.974 189.25 286.61C189.369 287.92 189.563 289.222 189.83 290.51C185.721 285.541 182.378 279.987 179.91 274.03C178.835 271.794 178.287 269.341 178.31 266.86V266.86Z" fill="black"/>
<path d="M221.94 217.31C221.1 217.26 220.24 217.2 219.39 217.13C217.485 213.696 216.966 209.664 217.94 205.86C217.757 207.943 218.018 210.041 218.708 212.015C219.398 213.99 220.5 215.794 221.94 217.31Z" fill="black"/>
<path d="M197.98 257.44C201.531 253.323 205.962 250.057 210.946 247.883C215.929 245.709 221.337 244.683 226.77 244.88C228.6 244.97 230.77 245.4 231.52 247.06C231.807 247.952 231.959 248.883 231.97 249.82C232.52 254.05 236.81 256.71 240.86 258.08C244.91 259.45 249.39 260.35 252.32 263.46C255.01 266.31 255.77 270.4 257.09 274.08C258.41 277.76 260.95 281.62 264.83 282.08L264.41 284.7C260.52 284.28 257.97 280.42 256.65 276.7C255.33 272.98 254.57 268.92 251.89 266.07C248.96 262.97 244.46 262.07 240.42 260.7C236.38 259.33 232.08 256.7 231.53 252.44C231.525 251.502 231.373 250.571 231.08 249.68C230.3 248.02 228.17 247.58 226.34 247.5C217.841 247.104 209.481 249.772 202.782 255.018C196.084 260.265 191.491 267.743 189.84 276.09C190.71 269.222 193.536 262.748 197.98 257.44Z" fill="black"/>
</g>
<path d="M431.8 339.65V378.78L394.36 375.78V339.65H431.8Z" fill="#3A3768"/>
<path opacity="0.1" d="M431.8 375.58V378.78L394.36 375.78V372.58L431.8 375.58Z" fill="black"/>
<path d="M443.24 381.59L385 378.59C385 377.078 385.601 375.628 386.669 374.56C387.738 373.491 389.188 372.89 390.7 372.89L437.54 375.89C439.052 375.89 440.502 376.491 441.57 377.56C442.639 378.628 443.24 380.078 443.24 381.59Z" fill="#3A3768"/>
<path d="M514.37 350.4L312.92 344.4C312.115 344.401 311.317 344.244 310.573 343.936C309.828 343.629 309.152 343.177 308.583 342.608C308.013 342.038 307.562 341.362 307.254 340.617C306.946 339.873 306.789 339.075 306.79 338.27V219.27C306.79 218.465 306.949 217.669 307.257 216.926C307.565 216.183 308.017 215.507 308.586 214.939C309.155 214.371 309.831 213.92 310.575 213.613C311.319 213.306 312.116 213.149 312.92 213.15L514.37 219.15C515.994 219.15 517.552 219.794 518.701 220.942C519.85 222.089 520.497 223.646 520.5 225.27V344.27C520.5 345.896 519.854 347.455 518.705 348.605C517.555 349.754 515.996 350.4 514.37 350.4Z" fill="#3A3768"/>
<path d="M515.55 341.7L311.29 335.7V228.48L515.55 234.48V341.7Z" fill="#6C63FF"/>
<path d="M413.42 224.72C414.414 224.72 415.22 223.923 415.22 222.94C415.22 221.957 414.414 221.16 413.42 221.16C412.426 221.16 411.62 221.957 411.62 222.94C411.62 223.923 412.426 224.72 413.42 224.72Z" fill="white"/>
<path opacity="0.1" d="M431.76 347.06L394.44 346.46V347.73H431.76V347.06Z" fill="black"/>
<path opacity="0.1" d="M363.8 383.88L414.91 387.23L404.02 402.88L347.83 396.88L363.8 383.88Z" fill="black"/>
<path d="M362.8 382.88L413.91 386.23L403.02 401.88L346.83 395.88L362.8 382.88Z" fill="#3A3768"/>
<path d="M365.06 384.04L409.63 386.76L400.14 399.51L351.13 394.62L365.06 384.04Z" fill="#D5E1F4"/>
<path opacity="0.1" d="M883.43 804.21C918.887 804.21 947.63 799.8 947.63 794.36C947.63 788.92 918.887 784.51 883.43 784.51C847.973 784.51 819.23 788.92 819.23 794.36C819.23 799.8 847.973 804.21 883.43 804.21Z" fill="#6C63FF"/>
<path d="M919.51 561.88C919.51 561.88 926.64 571.21 916.21 585.3C905.78 599.39 897.21 611.3 900.66 620.06C900.66 620.06 916.4 593.89 929.2 593.53C942 593.17 933.63 577.59 919.51 561.88Z" fill="#6C63FF"/>
<path opacity="0.1" d="M919.51 561.88C920.127 562.781 920.615 563.764 920.96 564.8C933.46 579.49 940.12 593.19 928.11 593.53C916.92 593.85 903.5 613.85 900.28 618.91C900.387 619.3 900.514 619.683 900.66 620.06C900.66 620.06 916.4 593.89 929.2 593.53C942 593.17 933.63 577.59 919.51 561.88Z" fill="black"/>
<path d="M932.77 573.77C932.77 577.05 932.4 579.77 931.95 579.77C931.5 579.77 931.12 577.1 931.12 573.77C931.12 570.44 931.58 572.03 932.04 572.03C932.5 572.03 932.77 570.49 932.77 573.77Z" fill="#FFD037"/>
<path d="M937.32 577.69C934.44 579.26 931.92 580.21 931.71 579.81C931.5 579.41 933.65 577.81 936.53 576.24C939.41 574.67 938.28 575.82 938.53 576.24C938.78 576.66 940.21 576.12 937.32 577.69Z" fill="#FFD037"/>
<path d="M881.82 561.88C881.82 561.88 874.68 571.21 885.11 585.3C895.54 599.39 904.11 611.3 900.66 620.06C900.66 620.06 884.93 593.89 872.12 593.53C859.31 593.17 867.73 577.59 881.82 561.88Z" fill="#6C63FF"/>
<path opacity="0.1" d="M881.82 561.88C881.197 562.779 880.705 563.762 880.36 564.8C867.87 579.49 861.21 593.19 873.22 593.53C884.41 593.85 897.83 613.85 901.04 618.91C900.938 619.301 900.811 619.685 900.66 620.06C900.66 620.06 884.93 593.89 872.12 593.53C859.31 593.17 867.73 577.59 881.82 561.88Z" fill="black"/>
<path d="M868.56 573.77C868.56 577.05 868.92 579.77 869.38 579.77C869.84 579.77 870.2 577.1 870.2 573.77C870.2 570.44 869.74 572.03 869.29 572.03C868.84 572.03 868.56 570.49 868.56 573.77Z" fill="#FFD037"/>
<path d="M864 577.69C866.89 579.26 869.4 580.21 869.62 579.81C869.84 579.41 867.62 577.81 864.79 576.24C861.96 574.67 863.05 575.82 862.79 576.24C862.53 576.66 861.12 576.12 864 577.69Z" fill="#FFD037"/>
<path opacity="0.1" d="M900.66 691.44C941.86 691.44 975.26 686.314 975.26 679.99C975.26 673.666 941.86 668.54 900.66 668.54C859.46 668.54 826.06 673.666 826.06 679.99C826.06 686.314 859.46 691.44 900.66 691.44Z" fill="#6C63FF"/>
<path d="M939.06 607.48L938.7 610.4L938.2 614.51L937.99 616.23L937.49 620.34L937.28 622.06L936.78 626.17L931.07 672.97C930.56 677.15 923.73 680.4 915.49 680.4H885.83C877.59 680.4 870.78 677.15 870.27 672.97L864.55 626.17L864.05 622.06L863.84 620.34L863.33 616.23L863.12 614.51L862.62 610.4L862.27 607.48C861.98 605.12 865.67 603.12 870.33 603.12H931C935.63 603.12 939.35 605.12 939.06 607.48Z" fill="#65617D"/>
<path d="M938.7 610.4L938.2 614.51H863.13L862.63 610.4H938.7Z" fill="#9D9CB5"/>
<path d="M937.99 616.23L937.49 620.35H863.84L863.33 616.23H937.99Z" fill="#9D9CB5"/>
<path d="M937.28 622.06L936.78 626.18H864.55L864.05 622.06H937.28Z" fill="#9D9CB5"/>
</g>
<defs>
<clipPath id="clip0_63_2">
<rect width="975.26" height="825.18" fill="white"/>
</clipPath>
</defs>
</svg>
